# AST/ASF file generated using VICON BodyLanguage
# -----------------------------------------------
:version 1.10
:name VICON
:units
  mass 1.0
  length 0.45
  angle deg
:documentation
   .ast/.asf automatically generated from VICON data using
   VICON BodyBuilder and BodyLanguage model FoxedUp or BRILLIANT.MOD
:root
   order TX TY TZ RX RY RZ
   axis XYZ
   position 0 0 0  
   orientation 0 0 0 
:bonedata
  begin
     id 1 
     name lhipjoint
     direction 0.440178 -0.822639 0.359871 
     length 2.53113 
     axis 0 0 0  XYZ
  end
  begin
     id 2 
     name lfemur
     direction 0.34202 -0.939693 0  
     length 7.88132  
     axis 0 0 20  XYZ
    dof rx ry rz
    limits (-160.0 20.0)
           (-70.0 70.0)
           (-60.0 70.0)
  end
  begin
     id 3 
     name ltibia
     direction 0.34202 -0.939693 0   
     length 8.43783   
     axis 0 0 20   XYZ
    dof rx
    limits (-10.0 170.0)
  end
  begin
     id 4 
     name lfoot
     direction 0.0886351 -0.243523 0.965837   
     length 2.63414   
     axis -90 7.62852e-016 20   XYZ
    dof rx rz
    limits (-45.0 90.0)
           (-70.0 20.0)
  end
  begin
     id 5 
     name ltoes
     direction 1.53703e-011 -4.21717e-011 1   
     length 1.31427   
     axis -90 7.62852e-016 20   XYZ
    dof rx
    limits (-90.0 20.0)
  end
  begin
     id 6 
     name rhipjoint
     direction -0.399779 -0.839773 0.367367   
     length 2.47948  
     axis 0 0 0  XYZ 
  end
  begin
     id 7 
     name rfemur
     direction -0.34202 -0.939693 0   
     length 7.74806   
     axis 0 0 -20   XYZ
    dof rx ry rz
    limits (-160.0 20.0)
           (-70.0 70.0)
           (-70.0 60.0)
  end
  begin
     id 8 
     name rtibia
     direction -0.34202 -0.939693 0   
     length 8.74432   
     axis 0 0 -20   XYZ
    dof rx
    limits (-10.0 170.0)
 end
 begin
     id 9 
     name rfoot
     direction -0.108514 -0.298139 0.948334   
     length 2.66102  
     axis -90 -7.62852e-016 -20   XYZ
    dof rx rz
    limits (-45.0 90.0)
           (-20.0 70.0)
  end
  begin
     id 10 
     name rtoes
     direction -1.53392e-011 -4.22077e-011 1   
     length 1.31983   
     axis -90 -7.62852e-016 -20   XYZ
    dof rx
    limits (-90.0 20.0)
  end
  begin
     id 11 
     name lowerback
     direction 0.0113257 0.999866 0.0118602   
     length 2.58694   
     axis 0 0 0   XYZ
    dof rx ry rz
    limits (-20.0 45.0)
           (-30.0 30.0)
           (-30.0 30.0)
  end
  begin
     id 12 
     name upperback
     direction -0.0164747 0.995193 -0.0965375   
     length 2.52368   
     axis 0 0 0   XYZ
    dof rx ry rz
    limits (-20.0 45.0)
           (-30.0 30.0)
           (-30.0 30.0)
  end
  begin
     id 13 
     name thorax
     direction -0.0194301 0.99433 -0.104552   
     length 2.56099   
     axis 0 0 0   XYZ
    dof rx ry rz
    limits (-20.0 45.0)
           (-30.0 30.0)
           (-30.0 30.0)
  end
  begin
     id 14 
     name lowerneck
     direction 0.0148543 0.995587 -0.092657   
     length 1.71582   
     axis 0 0 0   XYZ
    dof rx ry rz
    limits (-20.0 45.0)
           (-30.0 30.0)
           (-30.0 30.0)
  end
  begin
     id 15 
     name upperneck
     direction -0.0135467 0.993656 -0.111639   
     length 1.68937   
     axis 0 0 0   XYZ
    dof rx ry rz
    limits (-20.0 45.0)
           (-30.0 30.0)
           (-30.0 30.0)
  end
  begin
     id 16
     name head
     direction -0.00615349 0.999547 -0.029448  
     length 1.7462  
     axis 0 0 0   XYZ
    dof rx ry rz
    limits (-20.0 45.0)
           (-30.0 30.0)
           (-30.0 30.0)
  end
  begin
     id 17 
     name lclavicle
     direction 0.988267 0.149885 0.0293713  
     length 4.47222  
     axis 0 0 0   XYZ
    dof ry rz
    limits (-20.0 10.0)
           (0.0 20.0)
  end
  begin
     id 18 
     name lhumerus
     direction 1 -4.48986e-011 -1.14833e-027   
     length 5.37148   
     axis 180 -30 -90   XYZ
    dof rx ry rz
    limits (-60.0 90.0)
           (-90.0 90.0)
           (-90.0 90.0)
  end
  begin
     id 19
     name lradius
     direction 0.999998 0.00170963 -0.000987055   
     length 3.94212   
     axis 180 -30 -90   XYZ
    dof rx
    limits (-10.0 170.0)
  end
  begin
     id 20
     name lwrist
     direction 0.999998 7.53149e-005 -0.00194706   
     length 1.97106   
     axis 4.65056e-015 90 90   XYZ
    dof ry
    limits (-180.0 0.0)
 end
  begin
     id 21 
     name lhand
     direction 1 -4.48973e-011 -1.31746e-026   
     length 1.17917   
     axis 8.4065e-015 90 90   XYZ
    dof rx rz
    limits (-90.0 90.0)
           (-45.0 45.0)
  end
  begin
     id 22 
     name lfingers
     direction 1 -4.49107e-011 -2.63492e-026   
     length 0.950679   
     axis 1.6813e-014 90 90   XYZ
    dof rx
    limits (0.0 90.0)
  end
  begin
     id 23
     name lthumb
     direction 0.707107 -6.35048e-011 0.707107   
     length 1.36499   
     axis -90 45 2.85299e-015   XYZ
    dof rx rz
    limits (-45.0 45.0)
           (-45.0 45.0)
  end
  begin
     id 24 
     name rclavicle
     direction -0.996699 0.0642895 -0.0495725   
     length 4.62611  
     axis 0 0 0   XYZ 
    dof ry rz
    limits (-10.0 20.0)
           (-20.0 0.0)
  end
  begin
     id 25 
     name rhumerus
     direction -1 -4.48919e-011 -2.41059e-027  
     length 5.4981   
     axis 180 30 90   XYZ
    dof rx ry rz
    limits (-90.0 60.0)
           (-90.0 90.0)
           (-90.0 90.0)
  end
  begin
     id 26 
     name rradius
     direction -0.999999 0.00118101 -0.000681858   
     length 3.48381   
     axis 180 30 90   XYZ
    dof rx
    limits (-10.0 170.0)
  end
  begin
     id 27 
     name rwrist
     direction -0.999999 0.000321823 -0.00132288   
     length 1.7419   
     axis 4.65056e-015 -90 -90   XYZ
    dof ry
    limits (-180.0 0.0)
  end
  begin
     id 28
     name rhand
     direction -1 -4.49022e-011 -1.31746e-026   
     length 1.34932   
     axis 8.4065e-015 -90 -90   XYZ
    dof rx rz
    limits (-90.0 90.0)
           (-45.0 45.0)
  end
  begin
     id 29
     name rfingers
     direction -1 -4.49178e-011 -2.63492e-026   
     length 1.08785   
     axis 1.6813e-014 -90 -90   XYZ
    dof rx
    limits (0.0 90.0)
  end
  begin
     id 30
     name rthumb
     direction -0.707107 -6.34713e-011 0.707107   
     length 1.56195   
     axis -90 -45 -2.85299e-015   XYZ
    dof rx rz
    limits (-45.0 45.0)
           (-45.0 45.0)
  end
:hierarchy
  begin
    root lhipjoint rhipjoint lowerback
    lhipjoint lfemur
    lfemur ltibia
    ltibia lfoot
    lfoot ltoes
    rhipjoint rfemur
    rfemur rtibia
    rtibia rfoot
    rfoot rtoes
    lowerback upperback
    upperback thorax
    thorax lowerneck lclavicle rclavicle
    lowerneck upperneck
    upperneck head
    lclavicle lhumerus
    lhumerus lradius
    lradius lwrist
    lwrist lhand lthumb
    lhand lfingers
    rclavicle rhumerus
    rhumerus rradius
    rradius rwrist
    rwrist rhand rthumb
    rhand rfingers
  end

#!OML:ASF X:\für Bonn\!DataBase\2005_08_10_Bjorn_Final\c3d\bjorn.ASF
:FULLY-SPECIFIED
:DEGREES
16
root 0.266737 19.1149 2.68604 -176.097 -10.8482 -178.152
lowerback -9.26969 2.37113 0.299761
upperback 2.97466 3.137 -0.115776
thorax 8.38071 1.54128 0.222101
lowerneck -9.3137 -2.5668 -2.38645
upperneck 21.1755 -3.14073 -4.45229
head 8.05256 -2.46094 -1.42813
rclavicle 2.64632e-014 -3.97569e-015
rhumerus -27.5163 -22.0328 -76.4157
rradius 18.843
rwrist 30.5045
rhand -9.4893 10.3485
rfingers 7.12502
rthumb 16.4754 -18.9719
lclavicle 2.64632e-014 -3.97569e-015
lhumerus -32.857 -31.694 91.8051
lradius 33.2342
lwrist -15.5871
lhand -19.4514 -13.7585
lfingers 7.12502
lthumb 6.86937 16.1101
rfemur -12.8562 -18.2831 18.9075
rtibia 31.2029
rfoot -19.7219 10.3032
rtoes -11.0062
lfemur -16.5873 3.73295 -15.2371
ltibia 34.8453
lfoot -15.9495 -2.73651
ltoes -8.22562
17
root 0.241351 19.1129 2.68306 -176.052 -11.1615 -178.129
lowerback -9.15115 2.35434 0.169773
upperback 3.09844 3.13282 -0.162875
thorax 8.44111 1.53262 0.242281
lowerneck -9.29568 -2.66061 -2.34215
upperneck 20.9524 -3.2602 -4.44637
head 7.97229 -2.49866 -1.43774
rclavicle -2.10712e-014 1.13307e-014
rhumerus -28.4701 -26.2581 -74.4837
rradius 17.4504
rwrist 33.8245
rhand -9.25077 9.90677
rfingers 7.12502
rthumb 16.705 -19.3945
lclavicle -2.10712e-014 1.13307e-014
lhumerus -32.6208 -32.5927 91.5723
lradius 33.8414
lwrist -15.1656
lhand -19.6236 -13.8937
lfingers 7.12502
lthumb 6.70318 15.9802
rfemur -12.8944 -18.3584 18.8848
rtibia 31.2611
rfoot -19.8396 9.98828
rtoes -11.8705
lfemur -16.561 3.77975 -15.3106
ltibia 34.6259
lfoot -15.8783 -2.97583
ltoes -8.15865
18
root 0.215117 19.1112 2.68173 -175.997 -11.4845 -178.11
lowerback -9.01937 2.33335 0.0542385
upperback 3.2043 3.12151 -0.219419
thorax 8.4758 1.52153 0.242113
lowerneck -9.20772 -2.75154 -2.30948
upperneck 20.7197 -3.3887 -4.39443
head 7.87724 -2.53776 -1.42928
rclavicle -1.09332e-015 6.36111e-015
rhumerus -29.8154 -30.7541 -72.1246
rradius 16.185
rwrist 37.5247
rhand -9.07346 9.50884
rfingers 7.12502
rthumb 16.8757 -19.7779
lclavicle -1.09332e-015 6.36111e-015
lhumerus -32.4467 -33.505 91.3311
lradius 34.4789
lwrist -14.5909
lhand -19.8169 -14.0183
lfingers 7.12502
lthumb 6.51657 15.8614
rfemur -12.9372 -18.4912 18.8606
rtibia 31.3103
rfoot -19.9234 9.6746
rtoes -12.7286
lfemur -16.5614 3.78536 -15.3928
ltibia 34.4375
lfoot -15.8352 -3.14596
ltoes -8.32999
19
root 0.190201 19.1116 2.68215 -175.951 -11.8004 -178.087
lowerback -8.85469 2.31171 -0.0600174
upperback 3.30792 3.1089 -0.284014
thorax 8.48946 1.51001 0.230961
lowerneck -9.17 -2.84499 -2.25478
upperneck 20.5414 -3.52054 -4.35688
head 7.80885 -2.58068 -1.43198
rclavicle 1.63997e-014 1.63003e-014
rhumerus -31.6567 -35.5394 -69.2263
rradius 15.0763
rwrist 41.6203
rhand -8.89668 9.14361
rfingers 7.12502
rthumb 17.0459 -20.1285
lclavicle 1.63997e-014 1.63003e-014
lhumerus -32.231 -34.2695 91.0133
lradius 35.0637
lwrist -14.0986
lhand -20.0219 -14.1369
lfingers 7.12502
lthumb 6.31868 15.7489
rfemur -12.9591 -18.4102 18.8537
rtibia 31.3304
rfoot -20.052 9.17588
rtoes -13.5278
lfemur -16.5933 3.81669 -15.4638
ltibia 34.3018
lfoot -15.7837 -3.36168
ltoes -8.61517
20
root 0.164654 19.1152 2.68345 -175.897 -12.1143 -178.068
lowerback -8.6543 2.29358 -0.171926
upperback 3.38398 3.09936 -0.339771
thorax 8.45204 1.50028 0.226055
lowerneck -9.09848 -2.94415 -2.24363
upperneck 20.3701 -3.65954 -4.30775
head 7.73802 -2.63062 -1.42381
rclavicle -3.37437e-014 1.47101e-014
rhumerus -34.0865 -40.2104 -65.7802
rradius 14.1792
rwrist 45.6522
rhand -8.64762 8.73016
rfingers 7.12502
rthumb 17.2856 -20.5211
lclavicle -3.37437e-014 1.47101e-014
lhumerus -32.0059 -34.8074 90.6708
lradius 35.5835
lwrist -13.8008
lhand -20.306 -14.2483
lfingers 7.12502
lthumb 6.04439 15.6455
rfemur -12.9729 -18.4675 18.8295
rtibia 31.3201
rfoot -20.0973 8.82088
rtoes -14.1195
lfemur -16.654 3.81852 -15.5366
ltibia 34.2044
lfoot -15.7389 -3.56736
ltoes -8.96755
21
root 0.140005 19.1199 2.68588 -175.829 -12.4369 -178.069
lowerback -8.44215 2.25909 -0.306014
upperback 3.43868 3.07048 -0.404193
thorax 8.38397 1.48047 0.220423
lowerneck -9.01381 -3.0433 -2.2635
upperneck 20.2473 -3.8041 -4.22895
head 7.68235 -2.68576 -1.40231
rclavicle 5.86912e-014 -3.57812e-015
rhumerus -37.1126 -44.5688 -61.805
rradius 13.4272
rwrist 49.4917
rhand -8.36379 8.35916
rfingers 7.12502
rthumb 17.5588 -20.8679
lclavicle 5.86912e-014 -3.57812e-015
lhumerus -31.8132 -35.2048 90.2913
lradius 36.0829
lwrist -13.5042
lhand -20.5052 -14.3438
lfingers 7.12502
lthumb 5.85208 15.5554
rfemur -12.9885 -18.6052 18.7922
rtibia 31.2749
rfoot -20.1242 8.51907
rtoes -14.935
lfemur -16.7493 3.76899 -15.6287
ltibia 34.1545
lfoot -15.7158 -3.73173
ltoes -9.49635
22
root 0.114727 19.129 2.68903 -175.757 -12.7348 -178.067
lowerback -8.23394 2.24428 -0.41639
upperback 3.49114 3.0658 -0.489749
thorax 8.31828 1.4742 0.183269
lowerneck -8.87223 -3.14742 -2.26183
upperneck 20.0995 -3.97085 -4.09762
head 7.60869 -2.744 -1.36703
rclavicle 1.17283e-014 -2.22639e-014
rhumerus -40.6285 -48.4107 -57.4914
rradius 12.8444
rwrist 52.7418
rhand -8.0461 7.9785
rfingers 7.12502
rthumb 17.8645 -21.221
lclavicle 1.17283e-014 -2.22639e-014
lhumerus -31.6671 -35.5899 89.8658
lradius 36.651
lwrist -13.254
lhand -20.8055 -14.4026
lfingers 7.12502
lthumb 5.56218 15.5044
rfemur -13.0021 -18.7751 18.7532
rtibia 31.1991
rfoot -20.099 8.2352
rtoes -15.6809
lfemur -16.8559 3.67082 -15.7087
ltibia 34.1294
lfoot -15.6955 -3.90164
ltoes -9.44638
